<?xml version="1.0" encoding="UTF-8" standalone="no"?><!DOCTYPE svg PUBLIC "-//W3C//DTD SVG 1.1//EN" "http://www.w3.org/Graphics/SVG/1.1/DTD/svg11.dtd"><svg width="100%" height="100%" viewBox="0 0 684 606" version="1.1" xmlns="http://www.w3.org/2000/svg" xmlns:xlink="http://www.w3.org/1999/xlink" xml:space="preserve" xmlns:serif="http://www.serif.com/" style="fill-rule:evenodd;clip-rule:evenodd;stroke-linecap:round;stroke-linejoin:round;stroke-miterlimit:1.5;"><g><path d="M633.333,302.591l-145.833,252.59l-291.667,0l-145.833,-252.59l145.833,-252.591l291.667,0l145.833,252.591Z" style="fill:none;stroke:#fff;stroke-width:100px;"/><path d="M341.667,302.591l145.833,-252.591l-291.667,0l-145.833,252.591l145.833,252.59l291.667,0" style="fill:#fff;"/><path d="M341.667,302.591l145.833,252.59l145.833,-252.59l-145.833,-252.591l-291.667,0l-145.833,252.591l291.667,-0Z" style="fill:#fbcfe8;"/><path d="M341.667,302.591l-291.667,-0l145.833,-252.591l291.667,0l145.833,252.591l-145.833,252.59l-145.833,-252.59" style="fill:none;stroke:#e5e7eb;stroke-width:66.67px;"/><path d="M341.667,302.591l145.833,-252.591l-291.667,0l-145.833,252.591l145.833,252.59l291.667,0" style="fill:none;stroke:#111827;stroke-width:66.67px;"/></g></svg>